<svg id="visual" viewBox="0 0 900 200" width="900" height="200" xmlns="http://www.w3.org/2000/svg" xmlns:xlink="http://www.w3.org/1999/xlink" version="1.1"><path d="M0 113L21.5 119.2C43 125.3 86 137.7 128.8 145.2C171.7 152.7 214.3 155.3 257.2 155C300 154.7 343 151.3 385.8 139.8C428.7 128.3 471.3 108.7 514.2 107.3C557 106 600 123 642.8 130.8C685.7 138.7 728.3 137.3 771.2 133.7C814 130 857 124 878.5 121L900 118L900 201L878.5 201C857 201 814 201 771.2 201C728.3 201 685.7 201 642.8 201C600 201 557 201 514.2 201C471.3 201 428.7 201 385.8 201C343 201 300 201 257.2 201C214.3 201 171.7 201 128.8 201C86 201 43 201 21.5 201L0 201Z" fill="#1c983d" stroke-linecap="round" stroke-linejoin="miter"></path></svg>