<svg id="visual" viewBox="0 0 960 540" xmlns="http://www.w3.org/2000/svg" xmlns:xlink="http://www.w3.org/1999/xlink" version="1.1"><path d="M0 486L22.8 475.5C45.7 465 91.3 444 137 444.8C182.7 445.7 228.3 468.3 274 480.3C319.7 492.3 365.3 493.7 411.2 487C457 480.3 503 465.7 548.8 455.2C594.7 444.7 640.3 438.3 686 446.5C731.7 454.7 777.3 477.3 823 474.2C868.7 471 914.3 442 937.2 427.5L960 413L960 541L937.2 541C914.3 541 868.7 541 823 541C777.3 541 731.7 541 686 541C640.3 541 594.7 541 548.8 541C503 541 457 541 411.2 541C365.3 541 319.7 541 274 541C228.3 541 182.7 541 137 541C91.3 541 45.7 541 22.8 541L0 541Z" fill="#1c983d" stroke-linecap="round" stroke-linejoin="miter"></path></svg>