<svg id="visual" viewBox="0 0 900 200" xmlns="http://www.w3.org/2000/svg" xmlns:xlink="http://www.w3.org/1999/xlink" version="1.1"><path d="M0 168L21.5 160.3C43 152.7 86 137.3 128.8 133.3C171.7 129.3 214.3 136.7 257.2 144.2C300 151.7 343 159.3 385.8 153.5C428.7 147.7 471.3 128.3 514.2 121.5C557 114.7 600 120.3 642.8 128C685.7 135.7 728.3 145.3 771.2 144.5C814 143.7 857 132.3 878.5 126.7L900 121L900 201L878.5 201C857 201 814 201 771.2 201C728.3 201 685.7 201 642.8 201C600 201 557 201 514.2 201C471.3 201 428.7 201 385.8 201C343 201 300 201 257.2 201C214.3 201 171.7 201 128.8 201C86 201 43 201 21.5 201L0 201Z" fill="#1c983d" stroke-linecap="round" stroke-linejoin="miter"></path></svg>