<svg id="visual" viewBox="0 0 900 200" width="900" height="200" xmlns="http://www.w3.org/2000/svg" xmlns:xlink="http://www.w3.org/1999/xlink" version="1.1"><path d="M0 141L21.5 136.3C43 131.7 86 122.3 128.8 117.2C171.7 112 214.3 111 257.2 117.7C300 124.3 343 138.7 385.8 150C428.7 161.3 471.3 169.7 514.2 164.3C557 159 600 140 642.8 129.2C685.7 118.3 728.3 115.7 771.2 120.3C814 125 857 137 878.5 143L900 149L900 201L878.5 201C857 201 814 201 771.2 201C728.3 201 685.7 201 642.8 201C600 201 557 201 514.2 201C471.3 201 428.7 201 385.8 201C343 201 300 201 257.2 201C214.3 201 171.7 201 128.8 201C86 201 43 201 21.5 201L0 201Z" fill="#1c983d" stroke-linecap="round" stroke-linejoin="miter"></path></svg>