<?xml version="1.0" standalone="no"?><svg xmlns="http://www.w3.org/2000/svg" viewBox="0 0 1440 320"><path fill="#1c983d" fill-opacity="1" d="M0,96L40,128C80,160,160,224,240,218.7C320,213,400,139,480,122.7C560,107,640,149,720,181.3C800,213,880,235,960,229.3C1040,224,1120,192,1200,170.7C1280,149,1360,139,1400,133.3L1440,128L1440,320L1400,320C1360,320,1280,320,1200,320C1120,320,1040,320,960,320C880,320,800,320,720,320C640,320,560,320,480,320C400,320,320,320,240,320C160,320,80,320,40,320L0,320Z" style="--darkreader-inline-fill: #167a31;" data-darkreader-inline-fill=""></path></svg>